<svg width="512" height="512" viewBox="0 0 512 512" xmlns="http://www.w3.org/2000/svg">
  <defs>
    <linearGradient id="grad" x1="0%" y1="0%" x2="100%" y2="100%">
      <stop offset="0%" stop-color="#9f7aea" />
      <stop offset="50%" stop-color="#7f5af0" />
      <stop offset="100%" stop-color="#2a2a72" />
    </linearGradient>
    <radialGradient id="glow" cx="50%" cy="50%" r="60%">
      <stop offset="0%" stop-color="#ffffff" stop-opacity="0.4" />
      <stop offset="100%" stop-color="#ffffff" stop-opacity="0" />
    </radialGradient>
  </defs>
  <rect width="512" height="512" rx="128" fill="url(#grad)" />
  <circle cx="256" cy="180" r="112" fill="url(#glow)" />
  <path d="M256 96c-53.02 0-96 42.98-96 96s42.98 96 96 96 96-42.98 96-96-42.98-96-96-96zm0 48c26.51 0 48 21.49 48 48s-21.49 48-48 48-48-21.49-48-48 21.49-48 48-48z" fill="#f7fafc" opacity="0.92" />
  <path d="M128 368c0-70.69 57.31-128 128-128s128 57.31 128 128v32H128v-32z" fill="#f7fafc" opacity="0.88" />
  <path d="M160 384h192c8.84 0 16 7.16 16 16v32H144v-32c0-8.84 7.16-16 16-16z" fill="#e2e8f0" opacity="0.9" />
  <g fill="#ffffff" opacity="0.18">
    <path d="M64 128h32v8H64zM416 176h32v8h-32zM112 416h24v8h-24zM368 96h24v8h-24z" />
  </g>
</svg>
